#!OML:ASF X:\für Bonn\!DataBase\2005_08_12_Daniel\c3d\Daniel.ASF
:FULLY-SPECIFIED
:DEGREES
48
root -12.0665 21.3597 -0.00935222 319.447 83.6047 326.797
lowerback 14.7641 -0.938369 5.84845
upperback 0.885969 -0.0824821 1.37663
thorax -7.36421 -0.17585 -1.82744
lowerneck -4.95785 2.85284 -5.93412
upperneck 8.09451 4.59357 -2.11953
head 3.40618 2.0466 0.543052
rclavicle -1.90026e-014 4.37326e-014
rhumerus -30.5026 43.7657 -98.2431
rradius 107.4
rwrist -2.29396
rhand -23.7749 25.8744
rfingers 7.12502
rthumb 2.69478 -4.08832
lclavicle -1.90026e-014 4.37326e-014
lhumerus 151.875 219.418 266.919
lradius 111.942
lwrist 18.4359
lhand -9.52902 -13.1558
lfingers 7.12502
lthumb 16.4372 16.1679
rfemur -2.95355 -4.45743 23.9319
rtibia 38.9704
rfoot 17.4024 -5.41247
rtoes -12.698
lfemur -7.29295 7.76373 -15.3639
ltibia 52.4295
lfoot 10.321 -2.50349
ltoes -10.6052
49
root -11.8448 21.3481 -0.00448377 318.857 83.7059 326.176
lowerback 15.1256 -0.998447 5.77519
upperback 1.06818 -0.143936 1.41574
thorax -7.37377 -0.196093 -1.73146
lowerneck -5.26009 2.86686 -5.73641
upperneck 8.11341 4.61942 -2.16479
head 3.47567 2.05824 0.502485
rclavicle 1.2921e-015 -2.38542e-014
rhumerus -32.4455 42.8296 -98.7693
rradius 106.14
rwrist -2.24095
rhand -23.9935 25.4691
rfingers 7.12502
rthumb 2.48365 -4.49621
lclavicle 1.2921e-015 -2.38542e-014
lhumerus 149.939 218.545 268.054
lradius 110.526
lwrist 18.1674
lhand -9.19481 -12.3673
lfingers 7.12502
lthumb 16.7589 16.9294
rfemur -3.62073 -4.79784 23.9301
rtibia 38.4939
rfoot 16.3671 -5.4305
rtoes -13.0945
lfemur -7.89175 8.37309 -15.3235
ltibia 51.8619
lfoot 9.90762 -2.5635
ltoes -10.7073
50
root -11.6243 21.3253 0.000652378 318.101 83.7939 325.375
lowerback 15.4791 -1.0622 5.74842
upperback 1.25152 -0.204085 1.43852
thorax -7.3771 -0.217222 -1.67897
lowerneck -5.55647 2.87473 -5.46077
upperneck 8.11414 4.63412 -2.28062
head 3.54174 2.06443 0.424429
rclavicle 1.75552e-014 -4.6118e-014
rhumerus -34.4427 41.9381 -99.2908
rradius 104.78
rwrist -2.19095
rhand -24.5499 25.1894
rfingers 7.12502
rthumb 1.94627 -4.78148
lclavicle 1.75552e-014 -4.6118e-014
lhumerus 148.016 217.622 269.081
lradius 109.03
lwrist 17.9104
lhand -8.78778 -11.5462
lfingers 7.12502
lthumb 17.1507 17.7169
rfemur -4.2836 -5.06012 23.9684
rtibia 37.971
rfoot 15.4041 -5.4766
rtoes -13.1374
lfemur -8.54466 8.93212 -15.2868
ltibia 51.3204
lfoot 9.60793 -2.70271
ltoes -10.9236
51
root -11.4021 21.2907 0.00671242 317.649 83.9005 324.858
lowerback 15.8065 -1.12279 5.66555
upperback 1.42719 -0.272357 1.4555
thorax -7.37366 -0.240774 -1.59889
lowerneck -5.79804 2.89227 -5.14665
upperneck 8.05585 4.65489 -2.44768
head 3.57898 2.07492 0.321075
rclavicle 1.11816e-015 -3.18055e-015
rhumerus -36.4777 41.0921 -99.7841
rradius 103.3
rwrist -2.15209
rhand -25.4495 25.0931
rfingers 7.12502
rthumb 1.07747 -4.88397
lclavicle 1.11816e-015 -3.18055e-015
lhumerus 146.06 216.621 270.031
lradius 107.432
lwrist 17.5376
lhand -8.60202 -10.8703
lfingers 7.12502
lthumb 17.3295 18.3771
rfemur -4.94024 -5.21348 23.983
rtibia 37.3914
rfoot 14.5412 -5.6258
rtoes -13.0084
lfemur -9.24324 9.35887 -15.3431
ltibia 50.8158
lfoot 9.43912 -2.75671
ltoes -11.0581
52
root -11.1789 21.2451 0.0135345 317.27 83.9985 324.416
lowerback 16.1193 -1.19325 5.59971
upperback 1.62302 -0.355471 1.43544
thorax -7.34086 -0.271526 -1.56464
lowerneck -5.83589 2.922 -4.79327
upperneck 7.82707 4.66328 -2.60235
head 3.51775 2.08755 0.207959
rclavicle 2.01021e-014 -3.29983e-014
rhumerus -38.4261 40.1642 -100.314
rradius 101.527
rwrist -2.00518
rhand -26.6636 25.2334
rfingers 7.12502
rthumb -0.0951641 -4.7463
lclavicle 2.01021e-014 -3.29983e-014
lhumerus 144.091 215.551 270.77
lradius 105.841
lwrist 17.2294
lhand -8.4319 -10.3724
lfingers 7.12502
lthumb 17.4932 18.8605
rfemur -5.54508 -5.2838 23.9944
rtibia 36.7167
rfoot 13.7036 -5.82539
rtoes -13.0202
lfemur -9.95232 9.68427 -15.4294
ltibia 50.3295
lfoot 9.33681 -2.74926
ltoes -11.1495
53
root -10.9558 21.1884 0.0228824 316.803 84.1022 323.844
lowerback 16.4623 -1.28045 5.54897
upperback 1.78226 -0.458804 1.37446
thorax -7.36542 -0.315616 -1.57697
lowerneck -5.78248 2.96539 -4.32425
upperneck 7.51362 4.67321 -2.80367
head 3.41381 2.10513 0.0573709
rclavicle 2.95692e-015 -7.95139e-015
rhumerus -40.3615 39.0373 -100.882
rradius 99.5703
rwrist -1.69034
rhand -28.0052 25.634
rfingers 7.12502
rthumb -1.39089 -4.34122
lclavicle 2.95692e-015 -7.95139e-015
lhumerus 142.073 214.474 271.31
lradius 104.255
lwrist 16.9258
lhand -8.47827 -9.92553
lfingers 7.12502
lthumb 17.4486 19.3114
rfemur -6.14967 -5.17898 24.0394
rtibia 35.961
rfoot 12.8224 -6.12417
rtoes -13.0043
lfemur -10.7177 9.89108 -15.5321
ltibia 49.8485
lfoot 9.29943 -2.68736
ltoes -11.1882
54
root -10.7307 21.1228 0.0321406 316.406 84.1865 323.357
lowerback 16.8981 -1.37233 5.52487
upperback 1.91706 -0.558555 1.28212
thorax -7.46738 -0.361363 -1.63694
lowerneck -5.87198 3.00971 -3.82184
upperneck 7.27198 4.68806 -2.95645
head 3.36295 2.12344 -0.0787222
rclavicle 5.24295e-015 9.93923e-016
rhumerus -42.2883 37.7817 -101.382
rradius 97.4613
rwrist -1.26036
rhand -29.4926 26.2425
rfingers 7.12502
rthumb -2.82742 -3.71846
lclavicle 5.24295e-015 9.93923e-016
lhumerus 139.893 213.423 271.699
lradius 102.79
lwrist 16.6726
lhand -8.64788 -9.59462
lfingers 7.12502
lthumb 17.2854 19.6567
rfemur -6.70818 -4.96794 24.07
rtibia 35.1508
rfoot 12.0032 -6.4641
rtoes -12.7958
lfemur -11.4438 10.0048 -15.6319
ltibia 49.3422
lfoot 9.18084 -2.63759
ltoes -11.5044
55
root -10.5039 21.045 0.0412044 315.96 84.253 322.811
lowerback 17.3115 -1.45817 5.50812
upperback 2.0633 -0.650599 1.19006
thorax -7.5435 -0.402436 -1.7023
lowerneck -6.31345 3.04579 -3.26991
upperneck 7.21539 4.7129 -3.1211
head 3.44701 2.13806 -0.218182
rclavicle 2.33572e-015 1.92821e-014
rhumerus -44.1385 36.3313 -101.688
rradius 95.2869
rwrist -0.622912
rhand -30.8162 26.9591
rfingers 7.12502
rthumb -4.10561 -2.98107
lclavicle 2.33572e-015 1.92821e-014
lhumerus 137.65 212.334 271.991
lradius 101.413
lwrist 16.3199
lhand -8.88207 -9.38798
lfingers 7.12502
lthumb 17.06 19.883
rfemur -7.28793 -4.65994 24.1054
rtibia 34.3054
rfoot 11.465 -6.71168
rtoes -12.6035
lfemur -12.1413 9.97727 -15.7267
ltibia 48.8051
lfoot 8.98645 -2.53017
ltoes -11.7481
56
root -10.2752 20.9562 0.0501397 315.789 84.3157 322.549
lowerback 17.6566 -1.5241 5.43621
upperback 2.22044 -0.72921 1.13152
thorax -7.56768 -0.433283 -1.704
lowerneck -6.79187 3.08635 -2.78185
upperneck 7.19717 4.75197 -3.31082
head 3.55219 2.15581 -0.35384
rclavicle -5.1684e-015 -2.56432e-014
rhumerus -45.9579 34.7995 -101.762
rradius 93.1135
rwrist 0.165508
rhand -31.9601 27.554
rfingers 7.12502
rthumb -5.21025 -2.36193
lclavicle -5.1684e-015 -2.56432e-014
lhumerus 135.339 211.198 272.275
lradius 100.109
lwrist 15.853
lhand -9.15994 -9.19197
lfingers 7.12502
lthumb 16.7925 20.1019
rfemur -7.85589 -4.24951 24.1033
rtibia 33.4591
rfoot 11.125 -6.75873
rtoes -12.5596
lfemur -12.7836 9.81551 -15.8431
ltibia 48.2271
lfoot 8.72953 -2.42095
ltoes -12.322
57
root -10.0466 20.855 0.0579694 315.432 84.3563 322.086
lowerback 17.8982 -1.58541 5.42518
upperback 2.4148 -0.798072 1.06994
thorax -7.49443 -0.45799 -1.74714
lowerneck -7.12802 3.11477 -2.3369
upperneck 7.04588 4.76177 -3.48737
head 3.58239 2.16302 -0.483479
rclavicle -2.80783e-015 8.34896e-015
rhumerus -47.601 33.1971 -101.592
rradius 90.9345
rwrist 1.05788
rhand -32.7906 28.0326
rfingers 7.12502
rthumb -6.01206 -1.86213
lclavicle -2.80783e-015 8.34896e-015
lhumerus 133.182 210.022 272.386
lradius 98.7434
lwrist 15.2111
lhand -9.33429 -9.21536
lfingers 7.12502
lthumb 16.6246 20.0926
rfemur -8.42479 -3.71422 24.1174
rtibia 32.6045
rfoot 10.8866 -6.87826
rtoes -12.5146
lfemur -13.4252 9.56408 -15.9212
ltibia 47.6336
lfoot 8.4375 -2.31001
ltoes -13.0397
58
root -9.81667 20.7423 0.0659309 315.437 84.4165 321.999
lowerback 18.1295 -1.63337 5.32563
upperback 2.62078 -0.864725 1.03387
thorax -7.4008 -0.477845 -1.71331
lowerneck -7.45818 3.14814 -2.00465
upperneck 6.85155 4.78349 -3.63788
head 3.59303 2.17512 -0.585064
rclavicle 2.83268e-015 -1.94809e-014
rhumerus -49.1787 31.6024 -101.234
rradius 88.7997
rwrist 1.99162
rhand -33.3263 28.3252
rfingers 7.12502
rthumb -6.52922 -1.55413
lclavicle 2.83268e-015 -1.94809e-014
lhumerus 131.199 208.747 272.407
lradius 97.2425
lwrist 14.4519
lhand -9.41415 -9.31515
lfingers 7.12502
lthumb 16.5477 19.9993
rfemur -8.94328 -3.07247 24.0758
rtibia 31.7385
rfoot 10.7254 -7.0299
rtoes -12.3816
lfemur -14.0262 9.14809 -16.0381
ltibia 47.0396
lfoot 8.14203 -2.03207
ltoes -13.0304
59
root -9.58536 20.6187 0.0736386 315.325 84.4437 321.8
lowerback 18.2838 -1.67415 5.26976
upperback 2.88759 -0.919481 0.987023
thorax -7.19894 -0.489123 -1.7204
lowerneck -7.79068 3.16437 -1.67464
upperneck 6.58021 4.77651 -3.78679
head 3.57709 2.17429 -0.687925
rclavicle 3.60297e-015 -2.44505e-014
rhumerus -50.5712 29.9951 -100.759
rradius 86.6571
rwrist 2.88248
rhand -33.6485 28.4723
rfingers 7.12502
rthumb -6.8403 -1.39721
lclavicle 3.60297e-015 -2.44505e-014
lhumerus 129.427 207.458 272.255
lradius 95.5856
lwrist 13.4956
lhand -9.47635 -9.60315
lfingers 7.12502
lthumb 16.4879 19.7163
rfemur -9.44544 -2.35335 24.0477
rtibia 30.8509
rfoot 10.7304 -7.24831
rtoes -12.4043
lfemur -14.5935 8.63868 -16.1051
ltibia 46.4752
lfoot 7.77211 -1.7182
ltoes -12.6518
60
root -9.35452 20.4848 0.0811294 315.047 84.4687 321.462
lowerback 18.426 -1.71987 5.23042
upperback 3.19175 -0.977378 0.936836
thorax -6.95067 -0.499887 -1.74025
lowerneck -8.13983 3.18243 -1.40363
upperneck 6.23215 4.7699 -3.89235
head 3.5346 2.17505 -0.766441
rclavicle -2.21893e-014 3.37934e-015
rhumerus -51.9109 28.5324 -100.234
rradius 84.5485
rwrist 3.52402
rhand -33.8668 28.5339
rfingers 7.12502
rthumb -7.05098 -1.32869
lclavicle -2.21893e-014 3.37934e-015
lhumerus 127.775 206.066 272.031
lradius 93.7904
lwrist 12.4243
lhand -9.52665 -9.99881
lfingers 7.12502
lthumb 16.4394 19.3246
rfemur -9.93701 -1.57567 24.0172
rtibia 29.9782
rfoot 10.9837 -7.43769
rtoes -12.7707
lfemur -15.1423 8.02044 -16.1362
ltibia 45.9601
lfoot 7.3731 -1.31815
ltoes -11.9379
